<?xml version="1.0" encoding="UTF-8"?> <svg xmlns="http://www.w3.org/2000/svg" width="1552" height="794" viewBox="0 0 1552 794" fill="none"> <path d="M1550.21 380.909H1445.35C1396.61 313.279 1298.51 176.279 1298.51 176.279V380.055H1191.94C1191.97 253.466 1191.99 126.878 1192.02 0.289062C1226.71 0.41927 1261.41 0.549479 1296.1 0.674479C1345.87 73.3203 1395.65 145.971 1445.41 218.617C1445.3 146.107 1445.18 73.5964 1445.08 1.08594C1480.66 0.971355 1516.26 0.856772 1551.85 0.742188C1551.3 127.466 1550.75 254.185 1550.21 380.909Z" fill="#762DDC"></path> <path d="M1551.06 410.68V788.576H1437.02V635.247H1305.29C1304.59 686.185 1303.91 737.122 1303.23 788.065H1191.37V412.784C1228.67 412.445 1265.97 412.107 1303.27 411.768V541.898H1436.06V410.68" fill="#414141"></path> <path d="M1100.63 142.206V220.831H916.82C916.675 244.982 916.529 269.133 916.388 293.284C983.815 293.419 1051.24 293.56 1118.67 293.695C1118.53 322.456 1118.39 351.216 1118.26 379.977C1013.37 379.732 908.482 379.492 803.591 379.248V2.02881H1113.73V88.0653H916.695V142.206" fill="#762DDC"></path> <path d="M704.722 702.326V788.107H388.399V410.508H699.279V495.898H501.92V551.435H682.977V629.305H501.769V702.326" fill="#414141"></path> <path d="M736.086 2.07031V82.5859C667.555 150.987 597.956 220.445 524.951 293.31H744.269V380.159H385.461V297.867C457.498 227.503 529.534 157.143 601.566 86.7786L407.524 88.3776V2.07031" fill="#762DDC"></path> <path d="M1121.71 521.753C1088.61 529.117 1057.07 536.133 1026.09 543.024C1022.95 535.138 1016.29 521.581 1002.65 510.737C971.253 485.769 919.31 488.269 892.331 515.466C877.55 530.367 874.649 548.263 870.539 573.565C868.815 584.201 864.164 619.336 879.352 658.341C885.034 672.94 890.326 684.295 902.524 694.17C926.68 713.727 965.222 715.227 989.873 698.352C1003.35 689.128 1011.91 676.086 1016.21 666.175C1020.58 656.112 1024.12 645.696 1028.67 633.779C1060.74 643.67 1092.83 653.571 1124.58 663.373C1112.91 732.409 1060.93 781.43 994.659 790.399C958.831 795.248 923.794 793.482 888.742 786.029C830.498 773.644 793.289 736.133 772.919 683.076C752.815 630.706 752.732 576.17 769.607 522.394C789.123 460.206 833.07 424.68 895.925 411.112C936.456 402.367 977.102 403.232 1016.97 414.242C1071.77 429.373 1103.42 467.701 1121.71 521.753Z" fill="#414141"></path> <path d="M351.841 410.82V495.971H233.43V788.211H119.628V497.32H0.143555C0.336263 468.273 0.523763 439.232 0.711263 410.19C117.753 410.398 234.795 410.612 351.841 410.82Z" fill="#414141"></path> <path d="M232.545 239.05C226.399 271.768 210.628 290.518 175.415 293.185C157.092 294.57 138.581 293.43 118.389 293.43V89.0131C136.883 89.0131 154.909 86.4402 171.899 89.5287C210.836 96.6068 224.659 109.586 233.034 151.326C238.92 180.654 237.987 210.055 232.545 239.05ZM338.55 108.56C322.217 57.5443 290.102 21.0548 235.764 8.72142C210.237 2.92455 190.211 1.24747 178.909 1.13809C134.816 0.695382 74.8208 0.257883 2.4458 0.783924V381.497C31.9302 381.497 59.3416 381.987 86.7323 381.388C128.915 380.461 171.112 383.831 213.295 377.435C285.706 366.456 326.185 328.008 343.18 261.638C356.055 211.372 354.675 158.919 338.55 108.56Z" fill="#762DDC"></path> </svg> 